<svg id="Layer_1" data-name="Layer 1" xmlns="http://www.w3.org/2000/svg" viewBox="0 0 240.5 67.3"><title>bdcode-logo-black</title><path fill="#ffffff" d="M60.49,149A26.4,26.4,0,0,1,59,158.1,19.23,19.23,0,0,1,54.74,165a18.78,18.78,0,0,1-6.86,4.43A25.89,25.89,0,0,1,38.63,171c-1.43,0-2.94-.07-4.51-.2s-3.11-.31-4.62-.52-3-.46-4.35-.76-2.61-.59-3.67-.91V110l11.89-1.92V129a22.52,22.52,0,0,1,4.14-1.35,21.29,21.29,0,0,1,4.63-.48A19.07,19.07,0,0,1,50,128.7a15.57,15.57,0,0,1,5.74,4.43,20,20,0,0,1,3.51,6.9A31.4,31.4,0,0,1,60.49,149Zm-12.13-.31q0-11.49-8.45-11.49a13.92,13.92,0,0,0-3.63.48,10.51,10.51,0,0,0-2.91,1.19v21.62c.58.11,1.32.2,2.23.28s1.89.12,2.95.12a8.56,8.56,0,0,0,7.34-3.35A14.55,14.55,0,0,0,48.36,148.69Z" transform="translate(-21.48 -108.08)"/><path fill="#ffffff" d="M106.67,168.63c-1.06.32-2.28.62-3.67.91s-2.83.55-4.34.76-3.06.39-4.63.52-3.07.2-4.51.2a26.58,26.58,0,0,1-9.25-1.51,18.57,18.57,0,0,1-6.86-4.35,18.9,18.9,0,0,1-4.27-6.86,26.33,26.33,0,0,1-1.47-9.06A31,31,0,0,1,68.94,140a20.08,20.08,0,0,1,3.67-7,15.81,15.81,0,0,1,5.86-4.39,19.69,19.69,0,0,1,7.94-1.51,18.67,18.67,0,0,1,4.43.48,24.61,24.61,0,0,1,4,1.35V110l11.88-1.92ZM79.79,148.69a14.55,14.55,0,0,0,2.47,8.85,8.56,8.56,0,0,0,7.34,3.35c1.06,0,2.05,0,3-.12s1.65-.17,2.24-.28V138.87a10.77,10.77,0,0,0-2.91-1.19,14,14,0,0,0-3.63-.48Q79.79,137.2,79.79,148.69Z" transform="translate(-21.48 -108.08)"/><path fill="#ffffff" d="M121.49,169.44a9.64,9.64,0,0,1-4.16-5.35A31.55,31.55,0,0,1,116,153.75a31.91,31.91,0,0,1,1.33-10.33,9.75,9.75,0,0,1,4-5.36,13.48,13.48,0,0,1,7-1.59,23.43,23.43,0,0,1,4.12.4,26.12,26.12,0,0,1,3.86.93v2.66H129.6a6.23,6.23,0,0,0-6.78,5.22,29.26,29.26,0,0,0-.87,8.07,28.63,28.63,0,0,0,.9,8.14,7.08,7.08,0,0,0,2.66,4,8.74,8.74,0,0,0,4.75,1.13h6.65v2.66a28.74,28.74,0,0,1-3.85.93,24.43,24.43,0,0,1-4.12.39A15,15,0,0,1,121.49,169.44Z" transform="translate(-21.48 -108.08)"/><path fill="#ffffff" d="M143.26,167.08q-3-4-3-13.33t3-13.33q3-3.94,9.27-3.95t9.28,3.95q3,4,3,13.33t-3,13.33q-3,4-9.28,3.95T143.26,167.08Zm13.83-2.82q1.75-3.13,1.76-10.51t-1.76-10.5q-1.77-3.12-4.56-3.12T148,143.25q-1.77,3.12-1.76,10.5T148,164.26q1.76,3.12,4.55,3.12T157.09,164.26Z" transform="translate(-21.48 -108.08)"/><path fill="#ffffff" d="M173.54,167.18q-2.73-3.85-2.73-13.43t2.73-13.43q2.72-3.85,8.24-3.85a14.73,14.73,0,0,1,6.65,1.66V123.84h6v46.53h-5l-.33-2h-.33a8.69,8.69,0,0,1-3.12,2,11.06,11.06,0,0,1-3.86.69Q176.26,171,173.54,167.18Zm12.76-.53a8.25,8.25,0,0,0,2.13-.93V141.79a7.62,7.62,0,0,0-2.13-.93,8.69,8.69,0,0,0-2.53-.4,5.71,5.71,0,0,0-5.25,2.89q-1.72,2.9-1.73,10.4t1.73,10.4a5.72,5.72,0,0,0,5.25,2.9A9,9,0,0,0,186.3,166.65Z" transform="translate(-21.48 -108.08)"/><path fill="#ffffff" d="M207.87,169.47a9.28,9.28,0,0,1-4.42-5.32,30.85,30.85,0,0,1-1.4-10.4,33,33,0,0,1,1.3-10.3,9.84,9.84,0,0,1,3.82-5.39,14.14,14.14,0,0,1,13,0,9.84,9.84,0,0,1,3.82,5.39,32.69,32.69,0,0,1,1.3,10.3v2H208a19.78,19.78,0,0,0,.93,6.78,6.13,6.13,0,0,0,3,3.49,12.09,12.09,0,0,0,5.41,1H224v2.66a28.54,28.54,0,0,1-3.86.93A24.34,24.34,0,0,1,216,171,17.89,17.89,0,0,1,207.87,169.47Zm11.47-17.71q0-6.25-1.57-8.94a4.45,4.45,0,0,0-8.17,0q-1.56,2.69-1.56,8.94Z" transform="translate(-21.48 -108.08)"/><path fill="#ffffff" d="M232,170.64h30l-1.14,4.74h-30Z" transform="translate(-21.48 -108.08)"/></svg>